<svg width="372" height="510" viewBox="0 0 372 510" fill="none" xmlns="http://www.w3.org/2000/svg">
<g clip-path="url(#clip0_253_5325)">
<path d="M180.309 301.537L175.649 329.387L144.098 499.223H139.004L161.955 329.387L165.347 301.537H180.309Z" fill="#FFC727"/>
<g opacity="0.4">
<path d="M180.309 301.537L175.649 329.387L144.098 499.223H139.004L161.955 329.387L165.347 301.537H180.309Z" fill="black"/>
</g>
<path opacity="0.2" d="M165.347 301.537H180.309L175.649 329.387H161.955L165.347 301.537Z" fill="black"/>
<path d="M289.262 499.223H284.179L252.617 329.387L247.957 301.537H262.93L266.323 329.387L289.262 499.223Z" fill="#FFC727"/>
<g opacity="0.4">
<path d="M289.262 499.223H284.179L252.617 329.387L247.957 301.537H262.93L266.323 329.387L289.262 499.223Z" fill="black"/>
</g>
<path opacity="0.2" d="M262.932 301.537L266.324 329.387H252.618L247.958 301.537H262.932Z" fill="black"/>
<path d="M371.5 499.223H366.418L334.855 329.387L330.195 301.537H345.156L348.549 329.387L371.5 499.223Z" fill="#FFC727"/>
<g opacity="0.4">
<path d="M371.5 499.223H366.418L334.855 329.387L330.195 301.537H345.156L348.549 329.387L371.5 499.223Z" fill="black"/>
</g>
<path opacity="0.2" d="M348.549 329.387H334.855L330.195 301.537H345.156L348.549 329.387Z" fill="black"/>
<path d="M363.436 314.626H144.608V290.342H231.182L260.272 121.658H354.613L363.436 314.626Z" fill="#FFC727"/>
<path opacity="0.4" d="M363.436 314.626H144.608V290.342H231.182L260.272 121.658H354.613L363.436 314.626Z" fill="black"/>
<path opacity="0.2" d="M363.436 314.626H350.823L342.609 121.658H354.613L363.436 314.626Z" fill="black"/>
<path d="M151.853 433.084H358.975V440.576H151.853V433.084Z" fill="#FFC727"/>
<path opacity="0.4" d="M151.853 433.084H358.975V440.576H151.853V433.084Z" fill="black"/>
<path d="M53.2629 508.843C57.5127 509.908 179.067 499.952 183.354 496.72C183.851 496.385 181.739 456.19 181.739 456.19C181.527 455.632 179.39 395.512 179.39 395.512L105.441 400.044L105.851 461.799C105.851 461.799 87.3483 472.882 73.5426 480.77C65.0555 485.612 57.6991 490.008 56.034 491.531C51.7966 495.667 49.0131 507.815 53.2629 508.843Z" fill="#EB9481"/>
<path d="M53.2505 508.844C57.5127 509.909 179.067 499.953 183.354 496.709C183.851 496.387 181.739 456.191 181.739 456.191C181.739 456.191 181.478 451.448 181.217 444.848L105.776 450.854L105.851 461.85C105.851 461.85 87.3358 472.995 73.5426 480.833C65.0555 485.675 57.6991 490.071 56.034 491.607C51.7966 495.668 49.0131 507.829 53.2505 508.844Z" fill="#EBEBEB"/>
<path d="M52.8027 509.351C57.1643 510.403 178.855 500.138 183.279 496.819C184.957 495.58 185.193 476.721 181.763 456.189L104.459 461.861C104.459 461.861 59.9851 487.482 55.524 491.643C51.063 495.803 48.4286 508.236 52.8027 509.351Z" fill="#FFC727"/>
<g opacity="0.6">
<path d="M52.8027 509.351C57.1643 510.403 178.855 500.138 183.279 496.819C184.957 495.58 185.193 476.721 181.763 456.189L104.459 461.861C104.459 461.861 59.9851 487.482 55.524 491.643C51.063 495.803 48.4286 508.236 52.8027 509.351Z" fill="black"/>
</g>
<path d="M54.1326 504.348C74.4869 502.131 156.799 495.085 177.091 494.441C177.252 494.441 177.265 494.553 177.091 494.565C156.96 497.215 74.5987 503.593 54.145 504.695C53.7225 504.707 53.6977 504.398 54.1326 504.348Z" fill="#263238"/>
<path d="M62.9788 486.617C65.2422 486.365 67.5333 486.585 69.7067 487.263C71.8802 487.941 73.8884 489.062 75.604 490.554C78.7153 493.208 80.6785 496.957 81.084 501.018C81.084 501.142 80.8727 501.167 80.8479 501.018C78.9964 493.155 71.1429 486.777 63.0037 486.852C62.9816 486.842 62.9625 486.827 62.9483 486.807C62.9341 486.788 62.9252 486.765 62.9227 486.741C62.9202 486.717 62.9241 486.693 62.9339 486.671C62.9438 486.649 62.9593 486.631 62.9788 486.617Z" fill="#263238"/>
<path d="M97.0648 465.477C105.216 464.673 114.934 466.716 120.563 472.982C120.787 473.217 120.439 473.527 120.19 473.415C112.73 470.293 104.957 467.972 97.0027 466.493C96.8875 466.461 96.7868 466.391 96.7175 466.294C96.6481 466.197 96.6142 466.079 96.6214 465.96C96.6287 465.841 96.6767 465.728 96.7574 465.641C96.8381 465.553 96.9466 465.495 97.0648 465.477Z" fill="#263238"/>
<path d="M90.9632 468.462C99.1273 467.657 108.832 469.7 114.474 475.954C114.685 476.201 114.337 476.499 114.089 476.4C106.634 473.273 98.8646 470.953 90.9135 469.477C90.7984 469.447 90.6972 469.377 90.627 469.281C90.5567 469.185 90.5216 469.068 90.5274 468.95C90.5332 468.831 90.5796 468.718 90.6589 468.629C90.7382 468.54 90.8456 468.481 90.9632 468.462Z" fill="#263238"/>
<path d="M84.8753 471.446C93.027 470.641 102.744 472.685 108.374 478.876C108.597 479.112 108.249 479.421 108.001 479.322C100.541 476.196 92.7678 473.871 84.8132 472.388C84.7212 472.344 84.6446 472.274 84.593 472.186C84.5415 472.098 84.5176 471.997 84.5243 471.896C84.5309 471.795 84.568 471.698 84.6306 471.617C84.6931 471.537 84.7784 471.478 84.8753 471.446Z" fill="#263238"/>
<path d="M78.7868 474.419C86.9384 473.614 96.6434 475.657 102.285 481.923C102.496 482.158 102.161 482.468 101.9 482.357C94.4431 479.236 86.6743 476.915 78.7246 475.434C78.6095 475.402 78.5088 475.332 78.4394 475.235C78.37 475.138 78.3361 475.02 78.3434 474.902C78.3507 474.783 78.3987 474.67 78.4794 474.582C78.56 474.494 78.6686 474.437 78.7868 474.419Z" fill="#263238"/>
<path d="M86.3904 444.514C90.2426 440.799 95.7226 443.647 98.5806 446.99C103.36 452.803 106.526 459.763 107.764 467.175C107.764 467.348 107.664 467.423 107.528 467.423C107.509 467.579 107.454 467.73 107.366 467.861C107.278 467.992 107.159 468.1 107.021 468.176C106.882 468.253 106.727 468.295 106.569 468.299C106.411 468.304 106.254 468.271 106.111 468.203C99.9599 464.686 92.9515 461.689 88.0555 456.402C85.2099 453.293 82.7619 448.08 86.3904 444.514ZM97.8847 460.959C100.867 462.767 103.924 464.414 106.832 466.321C105.156 462.341 103.282 458.448 101.215 454.656C100.185 452.835 99.0355 451.086 97.7729 449.417C95.7723 446.879 87.1857 440.749 87.1235 449.678C87.0738 454.594 94.3308 458.816 97.8847 460.959Z" fill="#263238"/>
<path d="M128.304 468.462C121.283 470.146 113.79 468.747 106.707 468.264C106.551 468.241 106.402 468.18 106.274 468.088C106.146 467.996 106.041 467.874 105.97 467.734C105.898 467.593 105.861 467.438 105.862 467.28C105.862 467.123 105.901 466.968 105.974 466.828C105.944 466.813 105.918 466.792 105.897 466.766C105.877 466.74 105.864 466.709 105.857 466.676C105.851 466.644 105.853 466.61 105.863 466.578C105.872 466.547 105.889 466.517 105.912 466.493C111.074 461.016 117.593 456.988 124.812 454.816C129.049 453.578 135.225 454.271 136.319 459.522C137.35 464.5 132.405 467.472 128.304 468.462ZM132.839 463.422C137.81 455.992 127.21 456.29 124.141 457.293C122.158 457.989 120.223 458.816 118.35 459.769C114.514 461.773 110.782 463.968 107.167 466.345C110.658 466.345 114.113 466.704 117.605 466.852C121.743 467.001 130.081 467.521 132.839 463.422Z" fill="#263238"/>
<path d="M104.707 456.945L182.695 454.01C182.695 454.01 176.009 305.709 184.459 300.099C194.661 293.338 252.294 303.257 284.715 276.658C303.292 261.402 306.635 231.224 306.635 231.224L247.56 203.832C247.56 203.832 236.463 213.231 232.996 214.568C220.073 219.522 153.804 208.761 122.7 232.289C88.9257 257.848 104.707 456.945 104.707 456.945Z" fill="#263238"/>
<path d="M107.999 441.702C121.258 440.947 117.443 440.971 130.702 440.365C137.189 440.067 169.795 438.482 175.896 439.262C175.933 439.262 175.968 439.277 175.993 439.302C176.019 439.328 176.033 439.363 176.033 439.399C176.033 439.435 176.019 439.47 175.993 439.495C175.968 439.521 175.933 439.535 175.896 439.535C169.87 440.773 137.226 441.591 130.739 441.764C117.468 442.123 121.27 441.875 107.999 442.086C107.956 442.075 107.918 442.05 107.891 442.015C107.864 441.981 107.85 441.938 107.85 441.894C107.85 441.85 107.864 441.807 107.891 441.772C107.918 441.738 107.956 441.713 107.999 441.702Z" fill="#37474F"/>
<path d="M291.896 235.596C285.323 251.087 275.084 268.585 258.892 275.358C242.067 280.943 223.962 281.327 206.379 282.924C197.444 283.655 188.485 284.026 179.637 285.834C177.982 286.108 176.406 286.733 175.015 287.667C173.856 288.938 173.069 290.502 172.741 292.187C170.069 303.889 170.255 315.913 169.845 327.814C169.559 363.378 171.237 398.906 173.573 434.371C172.393 398.881 171.225 363.353 171.933 327.876C172.057 321.969 172.256 316.062 172.641 310.18C173.2 303.728 173.412 296.967 175.599 290.874C175.77 290.317 176.093 289.819 176.532 289.434C176.97 289.049 177.508 288.793 178.084 288.695C181.598 287.777 185.186 287.172 188.808 286.887C194.685 286.293 200.6 285.797 206.528 285.314C224.223 283.581 242.564 283.023 259.414 276.758C275.755 269.588 285.832 251.57 291.859 235.62L291.896 235.596Z" fill="#37474F"/>
<path d="M238.017 99.6517C219.974 141.173 209.436 163.029 198.141 170.818C182.583 181.592 135.202 177.01 121.943 169.58C113.766 165.048 121.048 127.477 135.798 127.613C137.401 127.613 181.067 134.882 183.503 132.665C185.938 130.449 200.092 113.632 220.558 91.4169C233.108 77.7953 246.889 79.1575 238.017 99.6517Z" fill="#EB9481"/>
<path d="M148.324 127.069L141.266 183.363C141.266 183.363 183.429 181.988 197.073 173.456C210.717 164.924 228.685 129.05 238.713 101.027C248.741 73.0034 228.772 81.7336 219.092 91.6154C211.065 99.8255 184.037 130.598 182.534 131.068C181.03 131.539 148.324 127.069 148.324 127.069Z" fill="#EBEBEB"/>
<path d="M238.762 101.088C228.734 129.099 210.778 165.011 197.122 173.518C195.309 174.595 193.395 175.491 191.406 176.193C174.555 182.545 141.327 183.363 141.327 183.363L148.323 127.068C148.323 127.068 181.092 131.601 182.583 131.118C184.074 130.635 211.163 99.8749 219.129 91.6649C223.826 86.8849 230.921 82.365 235.867 82.1669C241.123 81.9564 243.932 86.6373 238.762 101.088Z" fill="#EBEBEB"/>
<path d="M159.332 130.908C158.823 132.941 158.478 135.012 158.301 137.1C158.04 139.093 157.767 141.075 157.518 143.068C157.021 147.142 156.524 151.204 156.077 155.278C155.219 163.278 154.324 171.376 154.101 179.326C154.101 179.5 154.411 179.487 154.436 179.326C155.965 171.253 156.797 163.08 157.655 154.956C158.09 150.956 158.45 146.969 158.81 142.969C158.997 140.976 159.158 138.97 159.32 136.976C159.582 134.964 159.678 132.935 159.606 130.908C159.593 130.735 159.37 130.759 159.332 130.908Z" fill="#263238"/>
<path opacity="0.1" d="M165.944 181.53C174.916 180.465 184.509 178.781 191.418 176.193C193.404 175.488 195.315 174.588 197.122 173.506C210.791 165.011 228.735 129.087 238.763 101.088C243.944 86.6496 241.124 81.9564 235.867 82.1669C234.151 82.2893 232.469 82.7083 230.897 83.4052L165.944 181.53Z" fill="black"/>
<path d="M321.447 218.865C321.198 219.187 208.293 209.652 207.124 208.513C205.472 206.903 211.958 107.911 229.405 80.6434C233.766 73.8327 250.293 72.0866 258.482 77.3124C299.017 103.206 322.292 217.664 321.447 218.865Z" fill="#EBEBEB"/>
<path d="M255.066 75.0352L244.963 133.645L246.268 221.566L326.418 228.03C326.418 228.03 298.185 97.9194 255.066 75.0352Z" fill="#263238"/>
<path d="M230.598 77.8945L223.999 128.666L213.561 215.906L203.285 210.618C203.285 210.618 213.089 103.082 230.598 77.8945Z" fill="#263238"/>
<path d="M264.758 79.9638C257.228 78.0939 254.382 81.5117 256.47 96.4954C258.557 111.479 271.381 120.271 276.998 120.581C282.614 120.89 283.211 104.136 279.371 95.9382C275.531 87.7405 264.758 79.9638 264.758 79.9638Z" fill="#EBEBEB"/>
<path d="M305.181 149.755C302.695 146.572 273.133 110.129 262.608 97.9807C253.164 87.133 254.73 75.5794 270.064 81.3871C293.475 90.2412 328.704 114.983 344.858 135.118C360.416 154.51 353.171 165.878 334.557 163.215C319.347 161.036 305.181 149.755 305.181 149.755Z" fill="#EBEBEB"/>
<path d="M309.965 155.044C296.42 137.096 282.159 119.888 267.181 103.418C280.726 121.365 294.987 138.574 309.965 155.044Z" fill="#263238"/>
<path d="M275.295 113.583C273.282 111.517 270.975 109.756 268.448 108.357C270.319 110.578 272.656 112.361 275.295 113.583Z" fill="#263238"/>
<path d="M238.19 97.6348C243.16 96.6565 251.125 84.9915 253.213 76.2985C253.35 75.7041 251.051 70.4536 248.566 63.9153C247.074 59.9651 245.509 55.5195 244.378 51.3711L219.96 64.8069C222.869 69.5984 225.181 74.7258 226.844 80.0754C226.996 80.6469 227.092 81.2316 227.13 81.8214C227.13 81.9081 227.13 82.0072 227.13 82.1186C227.59 85.524 230.473 99.1827 238.19 97.6348Z" fill="#EB9481"/>
<path d="M227.205 81.8582C227.205 81.9325 227.205 82.0315 227.205 82.143C228.13 82.0209 229.044 81.8263 229.939 81.561C244.713 77.1773 243.409 58.1319 242.638 52.3613L219.985 64.8312C222.902 69.6223 225.222 74.7496 226.894 80.0997C227.044 80.6768 227.148 81.2648 227.205 81.8582Z" fill="#263238"/>
<path d="M240.874 21.7003C245.92 30.3685 247.274 58.4661 242.018 66.0198C234.4 76.9666 218.793 81.4741 208.665 71.6294C198.849 62.0943 197.73 25.4524 203.894 18.2577C212.965 7.68246 233.444 8.90839 240.874 21.7003Z" fill="#EB9481"/>
<path d="M222.583 42.9127C221.75 42.8522 220.92 42.7489 220.098 42.6031C219.203 42.6121 218.33 42.3294 217.612 41.7982C217.421 41.5859 217.306 41.317 217.284 41.0328C217.261 40.7487 217.333 40.465 217.488 40.2256C217.866 39.7962 218.352 39.4756 218.896 39.297C219.44 39.1185 220.022 39.0884 220.582 39.2101C221.755 39.2868 222.857 39.7942 223.676 40.6342C223.854 40.8365 223.968 41.0862 224.005 41.3525C224.041 41.6187 223.999 41.8899 223.883 42.1323C223.766 42.3748 223.581 42.578 223.35 42.7167C223.119 42.8554 222.852 42.9235 222.583 42.9127Z" fill="#263238"/>
<path d="M203.286 42.392C204.118 42.1814 204.852 41.8595 205.659 41.5747C206.537 41.3933 207.333 40.9379 207.933 40.2744C208.077 40.0265 208.135 39.7387 208.099 39.4548C208.063 39.1709 207.935 38.9065 207.735 38.7018C207.274 38.3613 206.73 38.1496 206.16 38.0886C205.59 38.0277 205.014 38.1196 204.491 38.355C203.361 38.667 202.386 39.3863 201.757 40.3735C201.623 40.6071 201.56 40.875 201.577 41.1439C201.594 41.4128 201.69 41.6708 201.853 41.8858C202.015 42.1009 202.238 42.2635 202.493 42.3535C202.748 42.4435 203.024 42.4569 203.286 42.392Z" fill="#263238"/>
<path d="M222.807 63.332C222.384 63.8149 221.987 64.4589 221.303 64.5703C220.597 64.6155 219.89 64.5099 219.228 64.2607C219.166 64.2607 219.104 64.2607 219.154 64.3598C219.448 64.7173 219.836 64.9857 220.276 65.1345C220.715 65.2833 221.187 65.3066 221.639 65.2019C222.017 65.0686 222.347 64.8271 222.588 64.5077C222.829 64.1883 222.97 63.8052 222.993 63.4063C223.018 63.2948 222.869 63.2701 222.807 63.332Z" fill="#263238"/>
<path d="M220.358 57.8465C219.937 58.6311 219.358 59.3202 218.656 59.8701C217.955 60.4201 217.146 60.8189 216.282 61.0413C215.529 61.2458 214.751 61.3459 213.971 61.3385C213.822 61.3512 213.672 61.3512 213.523 61.3385H213.101C212.998 61.3282 212.901 61.2835 212.827 61.2116C212.752 61.1396 212.704 61.0447 212.691 60.9423C212.678 60.8768 212.678 60.8096 212.691 60.7441V60.5832C212.529 59.1343 212.504 56.8682 212.504 56.8682C211.983 57.1778 209.361 58.6142 209.348 57.8465C209.224 51.531 209.087 44.5097 210.293 38.1943C210.293 37.9838 210.653 37.9962 210.641 38.1943C211.013 44.2621 210.293 50.3546 210.566 56.4595C211.496 55.9336 212.496 55.5417 213.536 55.2955C213.747 55.2955 213.536 59.5925 213.648 60.2488C213.643 60.2733 213.643 60.2986 213.648 60.3231C216.133 60.4346 217.91 59.5554 220.159 57.7226C220.296 57.5617 220.457 57.6855 220.358 57.8465Z" fill="#263238"/>
<path d="M218.507 46.1452C218.507 46.0709 218.656 46.2195 218.656 46.3062C218.743 48.176 219.14 50.3183 220.893 50.826C220.893 50.826 220.893 50.9375 220.893 50.9251C218.78 50.7889 218.308 47.9407 218.507 46.1452Z" fill="#263238"/>
<path d="M220.036 44.0645C223.055 43.6188 223.763 49.6494 220.943 50.0704C218.122 50.4914 217.513 44.436 220.036 44.0645Z" fill="#263238"/>
<path d="M207.486 47.1344C207.486 47.0601 207.349 47.2459 207.361 47.3202C207.722 49.1653 207.809 51.3447 206.218 52.2734V52.3725C208.269 51.7162 208.119 48.8185 207.486 47.1344Z" fill="#263238"/>
<path d="M205.51 45.452C202.465 45.6997 203.186 51.7303 206.007 51.5074C208.828 51.2845 208.045 45.2539 205.51 45.452Z" fill="#263238"/>
<path d="M245.646 45.3017C241.632 46.8743 237.407 41.2152 236.102 38.7757C234.798 36.3362 233.903 24.8817 231.517 21.2658C230.493 19.6123 228.936 18.3541 227.1 17.6973C225.265 17.0404 223.261 17.0237 221.415 17.6499C218.109 18.9997 214.133 23.8415 211.598 23.9158C209.063 23.9901 207.944 18.6406 206.192 18.8263C202.34 19.2226 200.439 29.4264 200.153 33.6862C200.153 33.6862 196.748 14.8142 215.959 11.3964C233.841 8.25105 240.812 18.1329 242.85 23.3214C246.888 33.2899 245.646 45.3017 245.646 45.3017Z" fill="#263238"/>
<path d="M238.724 45.7859C238.724 45.7859 243.011 35.7307 247.423 37.1177C251.834 38.5046 249.908 52.1137 245.633 54.838C245.104 55.2245 244.501 55.4997 243.861 55.647C243.222 55.7942 242.559 55.8104 241.912 55.6946C241.266 55.5788 240.651 55.3334 240.103 54.9733C239.555 54.6132 239.086 54.1459 238.724 53.5997V45.7859Z" fill="#EB9481"/>
<path d="M246.815 40.9805C246.89 40.9805 246.915 41.0548 246.815 41.0919C243.808 43.1104 242.727 46.5158 242.193 49.9088C242.315 49.5476 242.513 49.2165 242.773 48.9378C243.034 48.659 243.351 48.439 243.704 48.2924C244.057 48.1458 244.438 48.0761 244.82 48.0879C245.202 48.0997 245.577 48.1928 245.921 48.3609C246.02 48.3609 245.921 48.559 245.921 48.559C245.305 48.4957 244.684 48.625 244.145 48.929C243.606 49.233 243.176 49.6966 242.913 50.2555C242.475 51.1902 242.142 52.1703 241.919 53.1779C241.832 53.4999 241.261 53.4628 241.31 53.1036V53.017C240.391 48.8191 242.404 42.3426 246.815 40.9805Z" fill="#263238"/>
<path d="M198.799 42.8256C198.799 42.8256 194.376 31.4826 194.699 25.7615C195.022 20.0405 196.662 11.5208 200.378 8.57363C202.08 7.22386 212.978 7.84302 214.047 7.33531C216.78 5.82456 221.502 0.586452 224.249 0.475003C230.163 0.177806 242.18 15.3844 242.18 15.3844C242.18 15.3844 225.168 25.4148 218.01 29.5632C210.853 33.7116 198.799 42.8256 198.799 42.8256Z" fill="#FFC727"/>
<path d="M198.786 42.8261C198.786 42.8261 210.852 33.7244 218.022 29.5761C225.192 25.4277 242.166 15.3849 242.166 15.3849C242.166 15.3849 240.923 13.8122 239.047 11.6699C235.866 13.255 223.527 19.459 216.68 23.9541C214.194 25.601 201.085 35.099 197.121 38.0586C198.003 40.82 198.786 42.8261 198.786 42.8261Z" fill="#263238"/>
<path d="M254.17 15.7191C254.17 15.7191 226.571 29.1921 218.494 34.9626C210.417 40.7332 193.865 53.426 193.865 53.426L198.836 42.826C198.836 42.826 210.019 34.2816 214.766 30.9876C219.513 27.6937 242.179 15.3848 242.179 15.3848L254.17 15.7191Z" fill="#FFC727"/>
<path d="M233.008 74.478C230.481 76.8191 227.333 78.3879 223.937 78.9979C219.625 79.7781 213.499 77.4624 211.921 76.1002C210.343 74.7381 208.814 68.336 208.59 64.1133C208.367 59.8906 209.025 57.4387 212.505 55.8537C215.141 54.6883 218.066 54.3347 220.905 54.8383C222.18 54.9666 223.415 55.355 224.533 55.9791C225.651 56.6033 226.628 57.45 227.404 58.4665C229.019 60.646 234.723 72.4967 233.008 74.478ZM222.036 57.7235C221.589 57.1902 221.04 56.7504 220.422 56.4295C219.803 56.1085 219.127 55.9128 218.432 55.8537C216.866 55.5819 215.255 55.758 213.785 56.3614C211.859 57.1663 211.486 58.4294 211.622 60.6212C211.759 62.813 212.679 66.7385 213.561 67.4444C214.443 68.1502 217.761 68.435 220.159 68.0388C221.966 67.7997 223.679 67.0955 225.13 65.9955C226.136 64.9801 222.955 58.8504 222.036 57.7235Z" fill="#263238"/>
<path d="M226.585 79.9145L235.482 93.7714L251.972 71.6797L258.57 76.8187C258.57 76.8187 244.392 109.931 244.044 108.594L235.346 96.83L227.442 107.319L224.386 84.7316L226.585 79.9145Z" fill="#EBEBEB"/>
<path d="M225.256 96.2473C224.883 92.5323 224.398 88.7554 224.224 84.9909C224.224 84.8671 224.423 84.768 224.485 84.9166C225.877 88.3591 227.207 102.674 227.803 106.067C228.139 105.621 235.259 96.7673 235.259 96.8788C237.023 98.6867 243.398 107.244 243.87 108.024C246.107 102.761 255.849 81.8827 258.695 76.7932C258.782 76.6446 259.005 76.7189 258.956 76.8799C257.117 82.3409 244.616 109.844 244.367 109.819C241.106 105.829 238.057 101.671 235.234 97.3617C234.103 99.2192 227.107 109.039 226.995 108.507C226.184 104.456 225.603 100.363 225.256 96.2473Z" fill="#263238"/>
<path d="M236.948 101.484C238.658 103.421 240.208 105.491 241.583 107.676C242.851 110.968 243.852 114.355 244.578 117.805C244.392 118.004 241.422 117.706 240.85 117.979C239.666 118.421 238.459 118.801 237.234 119.118C237.122 119.118 236.24 110.648 236.19 109.855C236.141 109.063 235.109 102.203 235.109 102.203L236.948 101.484Z" fill="#FFC727"/>
<path opacity="0.1" d="M239.434 104.618C238.979 104.984 238.497 105.316 237.992 105.609C237.731 105.695 236.675 105.931 235.594 106.116C235.32 104.172 235.022 102.191 235.022 102.191L236.886 101.473C236.886 101.473 238.191 102.996 239.434 104.618Z" fill="#050400"/>
<path d="M232.648 101.646C231.499 103.713 230.494 105.856 229.641 108.061C228.993 111.325 228.648 114.641 228.61 117.968C228.821 118.129 231.567 117.968 232.201 118.091C232.835 118.215 235.096 118.81 235.22 118.772C235.345 118.735 234.599 109.98 234.525 109.188C234.45 108.395 234.599 102.03 234.599 102.03L232.648 101.646Z" fill="#FFC727"/>
<path opacity="0.1" d="M234.611 102.067C234.611 102.067 234.549 104.308 234.512 106.277C234.066 106.333 233.615 106.333 233.17 106.277C232.347 106.031 231.567 105.659 230.859 105.175C231.704 103.379 232.648 101.658 232.648 101.658L234.611 102.067Z" fill="#050400"/>
<path d="M234.065 97.7459C234.065 97.7459 226.534 85.0408 225.366 89.9074C224.963 91.1975 224.829 92.5563 224.972 93.9001C225.115 95.2438 225.533 96.5442 226.199 97.7212C226.199 97.7212 223.9 103.071 225.602 104.247C227.305 105.424 233.916 102.229 234.114 100.867C234.202 99.8273 234.186 98.7819 234.065 97.7459Z" fill="#FFC727"/>
<path opacity="0.1" d="M234.064 97.7325C234.169 98.7701 234.169 99.8155 234.064 100.853C233.952 101.509 232.387 102.599 230.56 103.416C230.12 102.154 229.804 100.852 229.616 99.5281C229.454 97.9059 231.231 95.6274 232.101 94.6367C233.219 96.3332 234.064 97.7325 234.064 97.7325Z" fill="#050400"/>
<path d="M236.501 97.8194C236.501 97.8194 247.685 84.3341 249.4 89.535C249.96 90.9058 250.14 92.4014 249.921 93.8653C249.703 95.3292 249.094 96.7077 248.157 97.8566C248.157 97.8566 251.487 103.59 248.977 104.828C246.467 106.067 236.787 102.599 236.551 101.113C236.382 100.023 236.365 98.9144 236.501 97.8194Z" fill="#FFC727"/>
<path opacity="0.1" d="M240.428 99.9004C240.411 101.038 240.121 102.154 239.583 103.157C237.855 102.439 236.576 101.671 236.476 101.151C236.324 100.046 236.324 98.9252 236.476 97.82C236.476 97.82 237.209 96.9408 238.328 95.7148C239.433 96.8685 240.165 98.3268 240.428 99.9004Z" fill="#050400"/>
<path d="M238.875 99.6645C238.872 100.448 238.637 101.214 238.198 101.864C237.759 102.514 237.136 103.02 236.409 103.318C235.681 103.615 234.881 103.691 234.111 103.536C233.34 103.381 232.632 103.001 232.078 102.445C231.524 101.889 231.147 101.182 230.996 100.413C230.845 99.6438 230.926 98.8474 231.23 98.1242C231.533 97.4011 232.044 96.7838 232.7 96.3504C233.355 95.917 234.124 95.687 234.911 95.6895C235.434 95.6895 235.951 95.7924 236.434 95.9925C236.916 96.1926 237.354 96.4858 237.723 96.8552C238.091 97.2246 238.383 97.6631 238.58 98.1452C238.778 98.6273 238.878 99.1436 238.875 99.6645Z" fill="#FFC727"/>
<path d="M1.04686 312.495C10.1056 298.465 54.741 265.315 56.9653 263.408C59.1523 261.947 77.9409 254.183 77.9409 254.183C78.5249 254.183 123.297 217.182 123.297 217.182L156.637 271.953L100.172 307.171C100.172 307.171 52.9516 339.664 37.4808 343.775C27.4155 346.462 -3.99822 320.309 1.04686 312.495Z" fill="#EB9481"/>
<path d="M37.469 343.775C52.8901 339.664 100.147 307.17 100.147 307.17L112.412 299.53L85.0742 248.523C80.9238 251.879 78.1155 254.121 77.9167 254.183C77.9167 254.183 59.1281 261.959 56.9411 263.408C54.7292 265.315 10.0939 298.477 1.02266 312.495C-3.99757 320.309 27.4161 346.45 37.469 343.775Z" fill="#EBEBEB"/>
<path d="M37.468 343.776C52.889 339.665 100.146 307.171 100.146 307.171L104.334 304.571C101.675 300.769 94.7782 290.85 91.5349 285.563C87.4466 278.95 77.8659 254.184 77.8659 254.184C77.8659 254.184 59.0774 261.96 56.8903 263.409C54.6784 265.316 10.0431 298.478 0.971911 312.496C-3.99862 320.31 27.4151 346.451 37.468 343.776Z" fill="#FFC727"/>
<path opacity="0.6" d="M37.468 343.776C52.889 339.665 100.146 307.171 100.146 307.171L104.334 304.571C101.675 300.769 94.7782 290.85 91.5349 285.563C87.4466 278.95 77.8659 254.184 77.8659 254.184C77.8659 254.184 59.0774 261.96 56.8903 263.409C54.6784 265.316 10.0431 298.478 0.971911 312.496C-3.99862 320.31 27.4151 346.451 37.468 343.776Z" fill="black"/>
<path d="M41.2219 338.339C40.5012 328.717 36.0277 319.764 31.1193 314.934C26.4097 310.352 20.0848 306.675 13.7225 307.628C13.5361 307.628 13.5734 308.099 13.7225 308.111C26.0121 309.164 38.1278 322.438 40.7746 338.376C40.8989 338.698 41.2592 338.66 41.2219 338.339Z" fill="#263238"/>
<path d="M77.8909 306.391C76.3625 298.367 71.6777 289.661 64.048 286.021C63.7622 285.885 63.5633 286.306 63.7373 286.516C68.8445 292.763 73.2646 299.539 76.9216 306.725C76.9821 306.831 77.0774 306.912 77.1913 306.954C77.3052 306.997 77.4304 306.998 77.5453 306.959C77.6602 306.919 77.7576 306.841 77.8207 306.737C77.8838 306.633 77.9087 306.511 77.8909 306.391Z" fill="#263238"/>
<path d="M73.0442 310.638C71.5282 302.613 66.8311 293.908 59.2137 290.267C58.9155 290.131 58.7291 290.54 58.8906 290.763C64.0047 297.008 68.4291 303.783 72.0874 310.972C72.1408 311.086 72.2349 311.177 72.3514 311.225C72.4679 311.274 72.5984 311.278 72.7177 311.237C72.837 311.195 72.9364 311.111 72.9968 311C73.0571 310.889 73.074 310.76 73.0442 310.638Z" fill="#263238"/>
<path d="M68.1869 314.848C66.6709 306.824 61.9737 298.131 54.3564 294.49C54.0582 294.341 53.8594 294.762 54.0333 294.973C59.1448 301.224 63.569 308.004 67.2301 315.195C67.28 315.316 67.3751 315.413 67.4954 315.466C67.6157 315.519 67.7519 315.524 67.8756 315.479C67.9992 315.434 68.1007 315.344 68.1587 315.226C68.2167 315.108 68.2268 314.973 68.1869 314.848Z" fill="#263238"/>
<path d="M63.3274 319.071C61.799 311.046 57.1143 302.353 49.4969 298.713C49.1987 298.564 48.9999 298.985 49.1739 299.196C54.281 305.446 58.7049 312.22 62.3706 319.405C62.424 319.519 62.5181 319.61 62.6346 319.658C62.7511 319.707 62.8816 319.711 63.0009 319.67C63.1201 319.628 63.2196 319.544 63.28 319.433C63.3403 319.322 63.3572 319.193 63.3274 319.071Z" fill="#263238"/>
<path d="M90.1688 307.171C83.3468 304.806 77.7425 299.592 72.101 295.37C71.9834 295.264 71.8924 295.133 71.8353 294.986C71.7782 294.839 71.7566 294.681 71.7724 294.524C71.7881 294.367 71.8407 294.216 71.9259 294.083C72.011 293.951 72.1263 293.84 72.2625 293.76C72.2625 293.636 72.2625 293.487 72.3992 293.45C79.7126 291.624 87.3797 291.748 94.6299 293.809C98.83 295.048 103.689 298.948 101.75 303.964C99.9235 308.706 94.1453 308.545 90.1688 307.171ZM96.7175 305.363C104.906 301.759 95.8477 296.348 92.7162 295.518C90.6711 295.027 88.5955 294.671 86.5031 294.453C82.1898 294.072 77.8599 293.906 73.53 293.958C76.4502 295.865 79.184 298.007 82.0296 300.013C85.4344 302.403 92.2067 307.357 96.7175 305.363Z" fill="#263238"/>
<path d="M67.6022 263.68C72.8834 262.578 75.9279 267.977 76.5119 272.348C77.3914 279.814 76.2813 287.378 73.2934 294.279C73.2313 294.44 73.0822 294.44 72.9579 294.366C72.8571 294.485 72.7294 294.579 72.5851 294.64C72.4409 294.701 72.2843 294.727 72.128 294.716C71.9717 294.706 71.8203 294.658 71.6859 294.578C71.5516 294.497 71.4382 294.387 71.3549 294.254C68.0868 287.989 63.7998 281.685 62.5696 274.602C61.8364 270.479 62.6193 264.72 67.6022 263.68ZM68.3478 283.704C69.8762 286.824 71.5538 289.896 72.9704 293.041C73.7216 288.786 74.2565 284.496 74.5733 280.187C74.6955 278.099 74.6748 276.006 74.5112 273.921C74.2006 270.714 70.2987 260.931 65.4028 268.411C62.7063 272.522 66.5211 279.977 68.3478 283.704Z" fill="#263238"/>
<path d="M58.009 263.768C46.6265 272.906 34.0014 283.321 22.855 292.757C19.4129 295.654 14.6661 299.778 11.4849 302.861C8.73871 305.499 5.94279 308.087 3.40782 310.948C2.91077 311.579 2.09065 312.297 2.02852 313.239C1.91668 316.458 3.94214 319.294 5.60727 321.746C7.12467 323.804 8.78562 325.753 10.5778 327.578C17.3874 334.649 26.5332 341.361 36.5239 342.562C34.0159 342.221 31.5811 341.473 29.3167 340.345C22.4305 337.177 16.2848 332.609 11.2737 326.934C7.99315 323.083 3.8179 318.898 3.14688 313.759C3.08475 312.818 3.71847 312.446 4.29008 311.703C13.2743 302.131 25.1166 292.336 35.1198 283.717C40.8483 278.764 52.3675 268.77 58.0215 263.768H58.009Z" fill="#263238"/>
<path d="M320.353 223.671C320.353 223.671 322.056 265.7 306.833 278.9C294.059 289.971 263.093 299.679 237.246 287.569C211.648 275.532 195.494 256.883 188.51 251.088C186.335 249.292 144.397 285.55 104.583 308.781L71.6779 252.735C77.7792 248.314 173.872 172.987 193.592 175.661C224.571 179.859 260.409 214.631 260.409 214.631L320.353 223.671Z" fill="#263238"/>
<path d="M282.465 220.079C282.465 219.868 282.838 219.943 282.838 220.079C282.825 225.945 284.854 231.635 288.579 236.177C292.816 241.13 299.054 243.941 304.733 246.851C305.28 247.136 304.82 247.545 304.261 247.371C300.809 246.441 297.474 245.124 294.32 243.446C291.403 241.86 288.844 239.693 286.802 237.081C284.963 234.687 283.63 231.945 282.884 229.023C282.139 226.1 281.996 223.058 282.465 220.079Z" fill="#37474F"/>
<path d="M114.015 296.112C108.473 287.295 109.902 289.92 104.496 281.029C101.85 276.683 88.479 254.851 86.9132 250.257C86.9132 250.146 87.0748 250.034 87.1493 250.121C90.4299 253.7 103.167 275.903 105.714 280.323C110.896 289.338 109.281 286.825 114.351 295.914C114.438 296.087 114.114 296.273 114.015 296.112Z" fill="#37474F"/>
<path d="M260.42 214.631C264.753 220.428 269.758 225.695 275.332 230.32C270.997 224.525 265.992 219.259 260.42 214.631Z" fill="#37474F"/>
<path d="M313.295 224.043C312.782 234.961 311.536 245.833 309.567 256.586C309.059 259.249 308.298 261.857 307.293 264.375C306.069 266.771 304.379 268.901 302.322 270.641C290.269 280.783 271.953 285.501 256.345 283.024C235.046 277.898 216.221 265.589 198.849 252.636C196.674 250.904 194.391 249.312 192.014 247.868C191.578 247.727 191.108 247.727 190.672 247.868C188.337 248.628 186.101 249.664 184.012 250.952C160.551 265.155 138.73 281.91 116.661 298.095C134.48 285.34 152.312 272.585 170.591 260.512C177.202 256.437 183.577 251.596 190.896 248.908C191.12 248.853 191.355 248.853 191.579 248.908C192.733 249.567 193.838 250.308 194.885 251.125L198.165 253.602C215.562 266.777 234.649 279.099 256.159 284.151C271.94 286.628 290.617 281.6 302.757 271.211C304.887 269.398 306.624 267.174 307.865 264.672C308.874 262.105 309.615 259.441 310.077 256.722C311.869 245.921 312.931 235.011 313.258 224.068L313.295 224.043Z" fill="#37474F"/>
<path d="M102.83 306.093C103.229 307.273 103.771 308.4 104.446 309.449C111.293 306.13 117.369 301.672 123.644 297.45C141.836 284.905 159.432 271.445 177.413 258.678C180.793 256.312 184.111 253.823 187.677 251.805C188.037 251.619 188.609 251.359 188.46 251.545C196.003 258.195 203.372 265.389 211.3 271.531C222.893 280.472 235.668 288.868 250.219 291.828C235.755 288.558 223.154 280.101 211.697 271.036C203.707 264.845 196.438 257.415 188.87 250.74C188.73 250.661 188.571 250.619 188.41 250.619C188.249 250.619 188.091 250.661 187.951 250.74C183.962 252.659 180.495 255.421 176.767 257.86C155.642 272.72 135.238 288.397 113.815 302.725C110.793 304.783 107.642 306.648 104.384 308.31L105.055 308.495C104.382 307.633 103.625 306.841 102.793 306.13L102.83 306.093Z" fill="#37474F"/>
<path d="M139.936 172.949C144.335 169.419 146.559 131.589 141.178 129.446C140.159 129.038 138.693 128.493 135.437 126.97C135.437 126.97 123.707 121.608 115.555 113.683C108.683 107.045 99.2394 96.346 95.524 99.9495C90.0813 105.101 100.395 119.998 106.832 128.183C101.215 129.038 96.4684 130.301 93.9707 132.047C85.6823 137.842 106.956 178.013 117.233 178.67C127.137 179.276 135.537 176.465 139.936 172.949Z" fill="#EB9481"/>
<path d="M204.304 154.076C204.304 150.361 205.025 132.567 218.731 129.31C235.88 125.298 243.087 136.74 252.444 139.811C270.735 145.879 303.106 123.911 331.972 139.204C360.839 154.497 358.068 189.629 350.922 211.027C343.777 232.425 325.535 263.21 297.489 260.275C270.313 257.439 261.677 235.112 247.647 228.5C234.861 222.457 196.973 222.469 192.064 206.792C188.784 196.34 200.763 197.096 203.633 191.56C206.404 186.322 201.546 181.53 200.788 178.892C199.06 172.986 204.304 154.076 204.304 154.076Z" fill="#FFC727"/>
<path opacity="0.3" d="M204.304 154.076C204.304 150.361 205.025 132.567 218.731 129.31C235.88 125.298 243.087 136.74 252.444 139.811C270.735 145.879 303.106 123.911 331.972 139.204C360.839 154.497 358.068 189.629 350.922 211.027C343.777 232.425 325.535 263.21 297.489 260.275C270.313 257.439 261.677 235.112 247.647 228.5C234.861 222.457 196.973 222.469 192.064 206.792C188.784 196.34 200.763 197.096 203.633 191.56C206.404 186.322 201.546 181.53 200.788 178.892C199.06 172.986 204.304 154.076 204.304 154.076Z" fill="black"/>
<path opacity="0.4" d="M204.304 154.076C204.304 150.361 205.025 132.567 218.731 129.31C235.88 125.298 243.087 136.74 252.444 139.811C270.735 145.879 303.106 123.911 331.972 139.204C360.839 154.497 358.068 189.629 350.922 211.027C343.777 232.425 325.535 263.21 297.489 260.275C270.313 257.439 261.677 235.112 247.647 228.5C234.861 222.457 196.973 222.469 192.064 206.792C188.784 196.34 200.763 197.096 203.633 191.56C206.404 186.322 201.546 181.53 200.788 178.892C199.06 172.986 204.304 154.076 204.304 154.076Z" fill="white"/>
<path opacity="0.2" d="M270.349 198.013L252.38 191.227C252.38 191.227 244.925 197.493 235.679 194.855C226.434 192.217 223.837 182.67 223.837 182.67L219.736 181.543C218.197 184.662 217.585 188.156 217.972 191.611C219.078 202.855 242.663 228.166 261.464 220.773C276.227 215.002 270.349 198.013 270.349 198.013Z" fill="black"/>
<path d="M237.61 195.102C227.699 193.548 220.928 184.281 222.487 174.404C224.046 164.527 233.345 157.779 243.257 159.333C253.168 160.887 259.939 170.154 258.38 180.031C256.821 189.908 247.522 196.656 237.61 195.102Z" fill="#FFC727"/>
<path d="M235.308 189.975C228.232 187.164 224.783 179.168 227.605 172.117C230.426 165.065 238.45 161.628 245.526 164.44C252.602 167.252 256.051 175.248 253.229 182.299C250.407 189.35 242.384 192.787 235.308 189.975Z" fill="#263238"/>
<path d="M74.2618 115.875L70.1611 128.159L226.136 185.791L233.555 163.575L74.2618 115.875Z" fill="#C7C7C7"/>
<path d="M278.567 204.496L287.156 178.75L293.972 181.008L285.382 206.754L278.567 204.496Z" fill="white"/>
<path d="M66.9484 108.127L65.0977 107.438L66.955 102.484L68.8058 103.174L66.9484 108.127Z" fill="#263238"/>
<path d="M64.0792 103.564L65.4668 99.8633L71.6594 102.169L70.2718 105.87L64.0792 103.564Z" fill="#263238"/>
<path d="M57.9602 104.84L56.1094 104.15L57.9667 99.1973L59.8175 99.8865L57.9602 104.84Z" fill="#263238"/>
<path d="M55.1046 100.255L56.4922 96.5547L62.6848 98.8607L61.2972 102.561L55.1046 100.255Z" fill="#263238"/>
<path d="M48.9738 101.549L47.123 100.859L48.9804 95.9063L50.8312 96.5955L48.9738 101.549Z" fill="#263238"/>
<path d="M46.1027 96.9406L47.4902 93.2402L53.6828 95.5463L52.2952 99.2466L46.1027 96.9406Z" fill="#263238"/>
<path d="M60.0313 135.266L58.0859 134.922L59.0128 129.716L60.9582 130.059L60.0313 135.266Z" fill="#263238"/>
<path d="M62.6045 133.724L61.9121 137.613L55.4029 136.463L56.0954 132.573L62.6045 133.724Z" fill="#263238"/>
<path d="M50.6056 133.563L48.6602 133.219L49.587 128.012L51.5325 128.356L50.6056 133.563Z" fill="#263238"/>
<path d="M53.1905 132.013L52.498 135.902L45.9889 134.752L46.6813 130.862L53.1905 132.013Z" fill="#263238"/>
<path d="M41.1505 131.811L39.2051 131.467L40.1319 126.26L42.0773 126.604L41.1505 131.811Z" fill="#263238"/>
<path d="M43.753 130.314L43.0605 134.203L36.5514 133.052L37.2438 129.163L43.753 130.314Z" fill="#263238"/>
<path d="M29.081 116.989L32.8089 103.256C32.8089 103.256 37.3445 103.85 42.6878 98.3027L71.0943 108.209L75.4062 113.447L70.9328 129.781L64.5457 132.158L35.0456 126.252C33.2935 118.785 29.081 116.989 29.081 116.989ZM67.3416 116.655L68.2487 113.361L41.7434 106.154L40.8362 109.448L67.3416 116.655ZM64.7321 126.215L65.6392 122.908L39.1214 115.689L38.2143 119.007L64.7321 126.215Z" fill="#FFC727"/>
<path opacity="0.4" d="M29.081 116.989L32.8089 103.256C32.8089 103.256 37.3445 103.85 42.6878 98.3027L71.0943 108.209L75.4062 113.447L70.9328 129.781L64.5457 132.158L35.0456 126.252C33.2935 118.785 29.081 116.989 29.081 116.989ZM67.3416 116.655L68.2487 113.361L41.7434 106.154L40.8362 109.448L67.3416 116.655ZM64.7321 126.215L65.6392 122.908L39.1214 115.689L38.2143 119.007L64.7321 126.215Z" fill="black"/>
<path opacity="0.4" d="M29.081 116.989L32.8089 103.256C32.8089 103.256 37.3445 103.85 42.6878 98.3027L71.0943 108.209L75.4062 113.447L70.9328 129.781L64.5457 132.158L35.0456 126.252C33.2935 118.785 29.081 116.989 29.081 116.989ZM67.3416 116.655L68.2487 113.361L41.7434 106.154L40.8362 109.448L67.3416 116.655ZM64.7321 126.215L65.6392 122.908L39.1214 115.689L38.2143 119.007L64.7321 126.215Z" fill="white"/>
<path d="M292.965 184.056L263.937 174.954L234.872 165.977L176.717 148.071L130.354 133.743C110.932 127.886 91.5343 121.979 72.0747 116.258L66.2592 106.463L71.9132 116.369C91.2609 122.487 110.658 128.406 130.031 134.387L176.319 148.962L234.574 166.559L263.701 175.351L292.965 184.056Z" fill="#263238"/>
<path d="M291.623 188.094L262.521 178.757L233.381 169.557L175.077 151.18C155.654 145.05 148.037 142.413 128.577 136.32C109.118 130.228 89.6706 124.209 70.1737 118.315H70.2483L57.822 103.455L70.0122 118.488C89.4097 124.754 108.869 130.785 128.292 136.939C147.714 143.094 155.257 145.93 174.729 151.96L233.219 170.176L262.421 179.203L291.623 188.094Z" fill="#263238"/>
<path d="M47.1233 100.828L68.9191 120.195L127.236 139.216C146.658 145.482 154.176 148.578 173.636 154.757L231.977 173.332L261.154 182.632L290.381 191.845L261.303 182.235L232.188 172.762L173.934 153.828C154.536 147.488 146.932 144.69 127.497 138.448L69.0931 119.874H69.1676L47.1233 100.828Z" fill="#263238"/>
<path d="M289.139 195.857L260.086 185.95L230.996 176.155L172.791 156.553C153.394 149.989 145.814 146.98 126.391 140.529L68.0746 121.285H67.9503L40.8734 126.437L68.0249 121.694H67.9503L126.13 141.296C145.54 147.798 153.033 151.104 172.48 157.494L230.735 176.737L259.9 186.359L289.139 195.857Z" fill="#263238"/>
<path d="M50.2557 128.965L68.7336 123.429H68.6466C87.8204 130.265 107.081 136.853 126.305 143.577L172.133 160.269L229.915 180.083L258.819 189.989L287.76 199.735L258.968 189.556L230.139 179.5L172.444 159.427L126.553 142.92C107.28 136.357 88.0316 129.67 68.7336 123.219H68.6466L50.2557 128.965Z" fill="#263238"/>
<path d="M286.455 203.61L257.875 193.307L229.232 183.141L171.947 162.832L126.441 146.102C107.305 139.453 88.1808 132.741 68.9946 126.215H68.9325L59.389 131.651L69.007 126.376C88.0441 133.286 107.156 139.997 126.255 146.796L171.599 163.736L229.008 183.797L257.701 193.703L286.455 203.61Z" fill="#263238"/>
<path d="M108.535 125.596C112.859 128.593 106.845 131.961 106.845 131.961C106.845 131.961 116.674 129.187 119.93 133.992C123.186 138.796 115.655 142.437 115.133 142.722C115.655 142.573 124.751 140.245 127.56 145.421C130.455 150.796 122.353 153.347 121.831 153.508C122.366 153.508 129.424 153.916 130.641 158.312C132.729 165.866 114.649 165.396 110.225 169.953C110.225 169.953 117.109 178.324 117.258 178.621C117.258 178.621 100.048 178.509 94.22 172.206C93.3552 171.304 92.8269 170.133 92.7229 168.889C92.6189 167.645 92.9455 166.404 93.6483 165.371C93.6483 165.371 88.0938 165.94 85.7825 161.953C84.5399 159.897 86.8387 156.182 86.8387 156.182C86.8387 156.182 82.3777 156.467 80.5386 152.777C79.0599 149.842 81.5327 146.585 81.5327 146.585C81.5327 146.585 77.1213 144.877 76.5622 141.385C75.4065 134.388 99.265 119.256 108.535 125.596Z" fill="#EB9481"/>
<path d="M81.806 146.04C81.7911 146.053 81.7717 146.06 81.7519 146.059C81.7321 146.058 81.7135 146.049 81.7003 146.034C81.6872 146.019 81.6804 146 81.6816 145.98C81.6827 145.96 81.6917 145.942 81.7066 145.929C88.3174 139.056 97.6992 133.546 107.156 131.787C107.466 131.787 107.69 132.208 107.354 132.344C98.2171 135.651 89.6108 140.265 81.806 146.04Z" fill="#263238"/>
<path d="M86.5893 156.244C86.5023 156.318 86.3905 156.169 86.465 156.083C93.3243 149.037 104.048 143.08 115.195 142.387C115.567 142.387 115.94 142.721 115.505 142.783C108.199 143.798 93.896 150.721 86.5893 156.244Z" fill="#263238"/>
<path d="M122.626 153.78C111.976 154.857 102.744 159.241 93.9086 165.098C93.7968 165.172 93.6973 164.999 93.7719 164.912C97.3134 160.875 103.34 157.73 108.224 155.674C112.73 153.678 117.684 152.897 122.589 153.408C122.75 153.433 122.812 153.755 122.626 153.78Z" fill="#263238"/>
<path d="M106.92 131.849C107.293 131.775 106.982 132.394 107.355 132.344C108.933 132.109 118.538 131.515 119.781 134.71C120.75 137.273 117.967 140.356 116.438 141.112L112.574 143.044L116.873 142.573C118.78 142.345 120.71 142.429 122.589 142.821C123.468 142.956 124.308 143.274 125.055 143.754C125.802 144.234 126.44 144.865 126.926 145.607C127.371 146.304 127.562 147.132 127.467 147.953C127.372 148.773 126.997 149.537 126.404 150.114C125.057 151.376 123.411 152.279 121.62 152.74L116.712 154.164L121.794 154.411C123.208 154.48 124.607 154.729 125.957 155.154C127.257 155.504 128.424 156.227 129.312 157.235C129.691 157.704 129.93 158.269 130.002 158.867C130.075 159.464 129.978 160.07 129.722 160.615C128.973 161.755 127.913 162.658 126.665 163.216C123.987 164.472 121.211 165.512 118.365 166.324C116.948 166.782 115.519 167.253 114.102 167.785C112.659 168.233 111.332 168.99 110.213 170.002C111.421 169.136 112.79 168.518 114.239 168.182C115.668 167.761 117.122 167.401 118.576 167.055C121.534 166.412 124.425 165.496 127.212 164.318C128.719 163.7 130.014 162.659 130.94 161.321C131.365 160.532 131.551 159.637 131.476 158.745C131.401 157.853 131.068 157.001 130.517 156.294C129.453 155.013 128.03 154.078 126.429 153.606C124.935 153.106 123.38 152.806 121.807 152.715L121.981 154.387C124.113 153.885 126.075 152.835 127.672 151.34C128.528 150.484 129.063 149.36 129.188 148.158C129.267 146.972 128.986 145.789 128.38 144.765C127.768 143.822 126.962 143.02 126.015 142.411C125.068 141.803 124.002 141.402 122.888 141.236C120.817 140.828 118.692 140.765 116.6 141.05L117.035 142.499C118.961 141.471 122.44 138.363 121.446 134.202C119.346 128.964 108.821 131.28 106.92 131.849Z" fill="#263238"/>
<path d="M106.845 132.01C107.673 131.298 108.385 130.463 108.957 129.534C109.194 129.168 109.331 128.747 109.353 128.312C109.374 127.877 109.281 127.444 109.081 127.057C108.524 126.277 107.751 125.675 106.857 125.323C105.888 124.89 104.856 124.469 103.763 124.085C104.92 123.893 106.105 123.943 107.242 124.234C108.521 124.494 109.646 125.246 110.374 126.326C110.705 126.958 110.835 127.675 110.746 128.382C110.631 129.044 110.334 129.661 109.889 130.165C109.102 131.092 108.033 131.74 106.845 132.01Z" fill="#263238"/>
<path d="M349.468 159.352C343.391 170.125 316.016 176.75 268.92 190.805C262.397 192.749 237.146 148.962 244.068 146.535C252.704 143.464 294.27 132.257 296.855 131.836C318.651 128.295 353.593 152.046 349.468 159.352Z" fill="#EB9481"/>
<path d="M196.387 179.227C199.618 184.18 211.088 175.177 211.088 175.177C210.089 177.505 209.94 180.107 210.665 182.533C212.156 186.743 219.426 186.248 219.426 186.248C218.899 188.877 219.176 191.603 220.221 194.074C222.048 197.962 229.454 198.532 229.454 198.532C230.353 201.191 232.138 203.463 234.511 204.971C245.335 211.287 272.511 193.492 279.246 186.793L263.924 141.408C263.924 141.408 231.517 141.755 220.221 148.566C213.884 152.355 191.454 171.722 196.387 179.227Z" fill="#EB9481"/>
<path d="M211.1 174.968C216.27 168.875 222.905 164.033 229.367 159.427C229.504 159.315 229.653 159.538 229.516 159.65C223.378 164.603 217.637 170.497 211.349 175.253C211.311 175.285 211.262 175.302 211.211 175.298C211.161 175.295 211.115 175.272 211.082 175.234C211.049 175.196 211.032 175.147 211.036 175.097C211.039 175.047 211.062 175.001 211.1 174.968Z" fill="#263238"/>
<path d="M219.389 185.988C220.699 184.717 222.17 183.622 223.763 182.731C225.391 181.691 227.044 180.675 228.734 179.685C232.048 177.703 235.423 175.804 238.861 173.988C239.023 173.914 239.184 174.124 239.023 174.211C235.705 176.192 232.425 178.223 229.206 180.403C227.549 181.468 225.942 182.541 224.385 183.622C222.944 184.747 221.381 185.707 219.725 186.483C219.692 186.505 219.656 186.52 219.617 186.528C219.578 186.536 219.539 186.536 219.5 186.529C219.461 186.521 219.425 186.506 219.392 186.484C219.359 186.463 219.331 186.435 219.309 186.402C219.287 186.37 219.271 186.333 219.263 186.295C219.255 186.256 219.255 186.217 219.263 186.178C219.27 186.14 219.285 186.103 219.307 186.07C219.329 186.038 219.357 186.01 219.389 185.988Z" fill="#263238"/>
<path d="M229.603 198.458C230.801 197.325 232.183 196.404 233.692 195.733C235.232 194.867 236.761 193.987 238.289 193.096C241.334 191.325 244.391 189.542 247.373 187.66C247.522 187.561 247.684 187.783 247.534 187.882C244.502 189.814 241.508 191.783 238.463 193.678C236.972 194.607 235.481 195.535 233.977 196.452C232.686 197.421 231.229 198.151 229.678 198.606C229.659 198.61 229.64 198.607 229.624 198.598C229.607 198.59 229.593 198.576 229.585 198.56C229.577 198.543 229.574 198.524 229.577 198.506C229.58 198.487 229.59 198.471 229.603 198.458Z" fill="#263238"/>
<path d="M250.207 139.328L287.61 189.914C287.61 189.914 349.244 168.528 352.227 157.309C354.352 149.297 320.614 126.524 296.408 130.499L250.207 139.328Z" fill="#EBEBEB"/>
<path d="M326.616 135.911C322.627 133.175 310.461 128.37 296.382 130.463C296.258 130.463 296.258 130.685 296.382 130.673C306.982 130.128 322.478 133.781 326.529 136.097C326.64 136.146 326.715 135.986 326.616 135.911Z" fill="#263238"/>
<path d="M298.434 181.444C294.706 175.599 290.605 169.953 286.529 164.318C282.454 158.684 278.365 153.037 274.103 147.514C271.717 144.381 269.356 141.236 266.859 138.202C266.843 138.188 266.823 138.18 266.802 138.178C266.78 138.176 266.759 138.181 266.741 138.192C266.723 138.203 266.709 138.22 266.701 138.24C266.693 138.259 266.692 138.281 266.697 138.301C270.425 144.134 274.488 149.805 278.527 155.452C282.565 161.099 286.691 166.745 290.841 172.318C293.186 175.48 295.605 178.584 298.098 181.63C298.26 181.779 298.533 181.618 298.434 181.444Z" fill="#263238"/>
<path d="M250.107 138.722C252.684 137.881 255.316 137.219 257.985 136.74C260.644 136.171 263.307 135.646 265.975 135.168C271.281 134.189 289.821 130.326 299.663 130.115C299.775 130.115 299.228 130.66 299.116 130.66C294.431 130.512 253.611 139.155 250.865 139.415C250.976 139.588 252.107 141.582 252.169 141.78C252.232 141.978 252.095 142.09 251.946 141.991C251.255 141.173 250.612 140.318 250.02 139.427C249.796 139.217 249.784 138.833 250.107 138.722Z" fill="#263238"/>
</g>
<defs>
<clipPath id="clip0_253_5325">
<rect width="371" height="509" fill="white" transform="matrix(-1 0 0 1 371.5 0.425781)"/>
</clipPath>
</defs>
</svg>
