<svg width="210" height="56" viewBox="0 0 210 56" fill="none" xmlns="http://www.w3.org/2000/svg">
<path d="M15.5836 30.3105V17.1275L16.4014 18.5341C15.9217 17.9017 15.3983 17.2802 14.8313 16.6695C14.286 16.0589 13.6972 15.5028 13.0648 15.0012C12.4542 14.4996 11.789 14.0962 11.0693 13.7909C10.3715 13.4855 9.6191 13.3329 8.8122 13.3329C7.78721 13.3329 6.9694 13.5619 6.35878 14.0198C5.74815 14.4778 5.15933 15.0012 4.59231 15.59L4.19977 15.5246C4.63593 15.2411 5.12661 15.0121 5.67182 14.8376C6.21702 14.6414 6.89308 14.5432 7.69998 14.5432C8.68135 14.5432 9.49915 14.7286 10.1534 15.0993C10.8295 15.4701 11.3419 15.9717 11.6909 16.6041C12.0398 17.2147 12.2143 17.9017 12.2143 18.665C12.2143 19.9735 11.7345 21.1729 10.7749 22.2633C9.83718 23.3537 8.39784 24.4441 6.45691 25.5346L3.97078 22.0343C5.23565 21.4673 6.23883 20.9112 6.98031 20.366C7.74359 19.8208 8.12524 19.2429 8.12524 18.6323C8.12524 18.2615 8.00529 17.978 7.7654 17.7817C7.54732 17.5637 7.16568 17.4546 6.62047 17.4546C6.18431 17.4546 5.73724 17.5201 5.27927 17.6509C4.8213 17.7817 4.30881 17.9998 3.74179 18.3051L0.307006 15.5573C1.07029 14.4451 1.86629 13.4528 2.695 12.5805C3.54552 11.7082 4.46146 11.0212 5.44283 10.5196C6.4242 9.99623 7.4928 9.73453 8.64863 9.73453C9.69543 9.73453 10.6659 9.9199 11.56 10.2906C12.476 10.6614 13.381 11.2066 14.2751 11.9263C15.1693 12.6241 16.1288 13.4855 17.1538 14.5105L15.7145 14.118C15.7145 13.8563 15.6927 13.4855 15.6491 13.0058C15.6054 12.5042 15.5836 11.8935 15.5836 11.1739V7.80451H19.1493L19.8689 9.96352H23.042V13.5619H19.9017V30.3105H15.5836ZM32.9929 13.5619H29.8526V30.3105H25.5346V13.5619H22.3942V9.96352H25.5346C25.3165 8.82949 24.9021 7.85903 24.2915 7.05213C23.6809 6.24522 22.874 5.59098 21.8708 5.08939C20.8676 4.56599 19.6791 4.18435 18.3051 3.94446C16.9094 3.70457 15.3283 3.58463 13.5619 3.58463C12.4933 3.58463 11.5991 3.63915 10.8795 3.74819C10.1598 3.83542 9.62549 3.97717 9.27655 4.17345C8.92762 4.34791 8.75316 4.55509 8.75316 4.79498C8.75316 5.01306 8.8731 5.16572 9.11299 5.25295C9.33108 5.31838 9.76724 5.35109 10.4215 5.35109H13.7254C14.9903 5.35109 16.0044 5.44923 16.7677 5.6455C17.5091 5.84177 18.1198 6.15799 18.5996 6.59415C19.0357 6.9867 19.3519 7.46648 19.5482 8.03349C19.7445 8.60051 19.8426 9.32018 19.8426 10.1925H15.7209C15.7209 9.82176 15.6664 9.50555 15.5573 9.24385C15.4483 8.98215 15.2847 8.78588 15.0666 8.65503C14.8704 8.54598 14.6523 8.46966 14.4124 8.42604C14.1725 8.36062 13.8563 8.3279 13.4637 8.3279H11.0757C9.76724 8.3279 8.74225 8.26248 8.00078 8.13163C7.2593 7.97897 6.65957 7.77179 6.2016 7.5101C5.6564 7.20478 5.27475 6.82314 5.05667 6.36517C4.83859 5.88539 4.72955 5.3838 4.72955 4.8604C4.72955 3.5083 5.51464 2.41789 7.08483 1.58918C8.63321 0.738658 11.0103 0.313398 14.2161 0.313398C18.9703 0.313398 22.6886 1.09849 25.371 2.66868C28.0534 4.21706 29.5691 6.64867 29.918 9.96352H32.9929V13.5619ZM52.3819 9.96352V13.5619H39.6241V23.1466C39.6241 23.888 39.6677 24.4332 39.7549 24.7822C39.8422 25.1311 39.973 25.3928 40.1475 25.5673C40.4528 25.8944 40.9544 26.058 41.6522 26.058C42.2411 26.058 42.8081 25.938 43.3533 25.6981C43.8985 25.4364 44.4546 25.033 45.0216 24.4878C45.5014 24.0516 45.8721 23.5827 46.1338 23.0811C46.3955 22.5795 46.5264 22.0671 46.5264 21.5437C46.5264 21.1293 46.3955 20.7913 46.1338 20.5296C45.8721 20.2679 45.4469 20.137 44.858 20.137C44.5745 20.137 44.3128 20.1479 44.0729 20.1697C43.8549 20.1916 43.6477 20.2243 43.4514 20.2679L42.8626 16.735C43.3424 16.6259 43.8222 16.5387 44.3019 16.4733C44.7817 16.4078 45.3378 16.3751 45.9703 16.3751C47.1261 16.3751 48.0529 16.5714 48.7508 16.9639C49.4487 17.3565 49.9612 17.8799 50.2883 18.5341C50.6154 19.1884 50.779 19.9299 50.779 20.7586C50.779 21.958 50.5282 23.0811 50.0266 24.1279C49.525 25.1529 48.8598 26.0798 48.0311 26.9085C47.1588 27.759 46.1556 28.435 45.0216 28.9366C43.8876 29.4164 42.6772 29.6563 41.3905 29.6563C40.2129 29.6563 39.297 29.5473 38.6427 29.3292C37.9885 29.1111 37.4324 28.7949 36.9744 28.3805C36.5164 27.988 36.1239 27.4101 35.7967 26.6468C35.4696 25.8835 35.3061 24.7058 35.3061 23.1138V13.5619H32.3292V9.96352H52.3819ZM45.087 9.96352C45.0652 9.28746 44.8908 8.80768 44.5636 8.52418C44.2365 8.21886 43.6586 8.06621 42.8299 8.06621H40.3765C38.719 8.06621 37.3669 7.91355 36.3201 7.60823C35.2952 7.28111 34.4883 6.79043 33.8994 6.13618C33.4851 5.67821 33.1798 5.14391 32.9835 4.53328C32.809 3.90084 32.7218 3.18117 32.7218 2.37427C32.7218 2.04715 32.7327 1.75274 32.7545 1.49104C32.7763 1.20753 32.8199 0.869507 32.8854 0.476959L36.9744 0.738658C36.9526 0.934932 36.9308 1.1094 36.909 1.26205C36.909 1.41471 36.909 1.55646 36.909 1.68731C36.909 2.14529 36.9526 2.55964 37.0398 2.93038C37.1489 3.27931 37.3233 3.57372 37.5632 3.81361C37.8031 4.03169 38.1084 4.19525 38.4792 4.3043C38.8499 4.41334 39.4496 4.46786 40.2783 4.46786H42.8626C44.1493 4.46786 45.1634 4.56599 45.9048 4.76227C46.6681 4.95854 47.3115 5.30747 47.8349 5.80906C48.2492 6.22342 48.5654 6.76862 48.7835 7.44467C49.0234 8.09892 49.1543 8.93853 49.1761 9.96352H45.087ZM62.319 9.96352V13.5619H59.1786V30.3105H54.8606V15.7863C54.5989 15.1102 54.2282 14.5759 53.7484 14.1834C53.2686 13.769 52.6471 13.5619 51.8838 13.5619H51.7202V9.96352H52.3745C52.876 9.96352 53.3449 10.0944 53.7811 10.3561C54.2172 10.6178 54.6207 11.1739 54.9914 12.0244C54.9696 11.9153 54.9369 11.6646 54.8933 11.272C54.8715 10.8795 54.8606 10.5414 54.8606 10.2579V7.80451H58.3935L59.1459 9.96352H62.319ZM83.1145 9.96352V13.5619H79.9742V30.3105H75.6561C74.8492 29.1329 73.857 28.097 72.6793 27.2029C71.5017 26.3087 70.1932 25.5673 68.7538 24.9784C67.3145 24.3678 65.777 23.9317 64.1414 23.67L62.5058 19.8099C64.5122 18.6977 66.7039 17.6291 69.081 16.6041C71.4799 15.5573 73.8352 14.7286 76.1468 14.118L75.7543 15.1975V13.5619H61.6553V9.96352H83.1145ZM75.6561 17.2584L76.1141 17.8799C75.1545 18.1634 74.2168 18.4905 73.3009 18.8613C72.3849 19.2102 71.469 19.5809 70.553 19.9735C69.6589 20.366 68.7429 20.7913 67.8052 21.2492C68.4812 21.3801 69.19 21.5873 69.9315 21.8708C70.6948 22.1543 71.4581 22.5032 72.2213 22.9176C73.0064 23.3319 73.7479 23.8226 74.4458 24.3896C75.1436 24.9348 75.7761 25.5455 76.3431 26.2215L75.7543 26.4832C75.7325 25.9816 75.7107 25.48 75.6888 24.9784C75.667 24.4769 75.6561 23.9862 75.6561 23.5064V17.2584ZM78.5021 26.9412C77.826 25.5891 76.8556 24.3896 75.5907 23.3428C74.3476 22.2742 72.9192 21.4019 71.3054 20.7259C69.7134 20.028 68.0451 19.5591 66.3004 19.3192L68.1323 17.9453C69.4626 18.1852 70.7493 18.5232 71.9924 18.9594C73.2572 19.3737 74.4349 19.9626 75.5253 20.7259C76.6157 21.4673 77.5534 22.4596 78.3385 23.7027L78.5021 26.9412ZM103.911 9.96352V13.5619H100.771V30.3105H96.4527C95.6458 29.1329 94.6535 28.097 93.4759 27.2029C92.2982 26.3087 90.9897 25.5673 89.5504 24.9784C88.1111 24.3678 86.5736 23.9317 84.938 23.67L83.3024 19.8099C85.3087 18.6977 87.5004 17.6291 89.8775 16.6041C92.2764 15.5573 94.6317 14.7286 96.9434 14.118L96.5508 15.1975V13.5619H82.4518V9.96352H103.911ZM96.4527 17.2584L96.9107 17.8799C95.9511 18.1634 95.0134 18.4905 94.0974 18.8613C93.1815 19.2102 92.2655 19.5809 91.3496 19.9735C90.4554 20.366 89.5395 20.7913 88.6018 21.2492C89.2778 21.3801 89.9866 21.5873 90.728 21.8708C91.4913 22.1543 92.2546 22.5032 93.0179 22.9176C93.803 23.3319 94.5445 23.8226 95.2423 24.3896C95.9402 24.9348 96.5726 25.5455 97.1397 26.2215L96.5508 26.4832C96.529 25.9816 96.5072 25.48 96.4854 24.9784C96.4636 24.4769 96.4527 23.9862 96.4527 23.5064V17.2584ZM99.2987 26.9412C98.6226 25.5891 97.6521 24.3896 96.3873 23.3428C95.1442 22.2742 93.7158 21.4019 92.102 20.7259C90.51 20.028 88.8416 19.5591 87.097 19.3192L88.9289 17.9453C90.2592 18.1852 91.5459 18.5232 92.7889 18.9594C94.0538 19.3737 95.2314 19.9626 96.3218 20.7259C97.4123 21.4673 98.35 22.4596 99.1351 23.7027L99.2987 26.9412ZM127.158 9.96352C127.136 9.28746 126.962 8.80768 126.635 8.52418C126.308 8.21886 125.73 8.06621 124.901 8.06621H120.256C118.599 8.06621 117.246 7.91355 116.2 7.60823C115.175 7.28111 114.368 6.79043 113.779 6.13618C113.365 5.67821 113.059 5.14391 112.863 4.53328C112.689 3.90084 112.601 3.18117 112.601 2.37427C112.601 2.04715 112.612 1.75274 112.634 1.49104C112.656 1.20753 112.699 0.869507 112.765 0.476959L116.854 0.738658C116.832 0.934932 116.81 1.1094 116.788 1.26205C116.788 1.41471 116.788 1.55646 116.788 1.68731C116.788 2.14529 116.832 2.55964 116.919 2.93038C117.028 3.27931 117.203 3.57372 117.443 3.81361C117.683 4.03169 117.988 4.19525 118.359 4.3043C118.729 4.41334 119.329 4.46786 120.158 4.46786H124.934C126.221 4.46786 127.235 4.56599 127.976 4.76227C128.739 4.95854 129.383 5.30747 129.906 5.80906C130.32 6.22342 130.637 6.76862 130.855 7.44467C131.095 8.09892 131.225 8.93853 131.247 9.96352H127.158ZM135.075 9.96352V13.5619H123.691V17.7817C123.691 18.1089 123.745 18.3924 123.854 18.6323C123.963 18.8503 124.192 18.9594 124.541 18.9594C124.825 18.9594 125.13 18.8613 125.457 18.665C125.784 18.4469 126.111 18.1525 126.439 17.7817C126.788 17.3892 127.136 16.953 127.485 16.4733L131.313 15.7536C132.054 16.8222 132.61 17.9017 132.981 18.9921C133.352 20.0607 133.537 21.2165 133.537 22.4596C133.537 23.8335 133.199 25.0657 132.523 26.1561C131.869 27.2247 130.877 28.0752 129.546 28.7076C128.238 29.3401 126.613 29.6563 124.672 29.6563C123.233 29.6563 121.848 29.4491 120.518 29.0348C119.187 28.6204 117.933 27.9226 116.756 26.9412C115.6 25.938 114.531 24.575 113.55 22.8521C112.59 21.1075 111.751 18.9267 111.031 16.3097L115.12 15.1648C115.84 17.7599 116.658 19.8535 117.574 21.4455C118.49 23.0157 119.504 24.1606 120.616 24.8803C121.75 25.5782 122.982 25.9271 124.312 25.9271C125.882 25.9271 127.093 25.5782 127.943 24.8803C128.816 24.1606 129.252 23.1684 129.252 21.9035C129.252 21.053 129.099 20.3551 128.794 19.8099C128.489 19.2647 128.14 18.7522 127.747 18.2724L131.084 18.0107C130.299 19.0575 129.503 19.919 128.696 20.595C127.889 21.2711 127.071 21.7726 126.242 22.0998C125.435 22.4269 124.596 22.5905 123.723 22.5905C123.026 22.5905 122.404 22.4923 121.859 22.296C121.314 22.078 120.856 21.7617 120.485 21.3474C120.114 20.933 119.831 20.3987 119.634 19.7445C119.46 19.0902 119.373 18.2506 119.373 17.2256V13.5619H110.181V9.96352H135.075ZM160.106 9.96352V13.5619H156.966V30.3105H152.648V17.4873L152.844 19.1557C152.168 18.2397 151.492 17.4219 150.816 16.7022C150.14 15.9826 149.464 15.3719 148.788 14.8704C148.112 14.3688 147.425 13.9871 146.727 13.7254C146.029 13.4637 145.32 13.3329 144.601 13.3329C143.728 13.3329 142.932 13.4964 142.213 13.8236C141.515 14.1507 140.861 14.5978 140.25 15.1648C139.661 15.7318 139.062 16.3969 138.451 17.1602L138.353 16.4078C138.789 16.1243 139.258 15.8735 139.759 15.6555C140.283 15.4156 140.893 15.2956 141.591 15.2956C142.682 15.2956 143.467 15.6009 143.947 16.2116C144.448 16.8004 144.699 17.4655 144.699 18.207C144.699 18.5559 144.688 18.8831 144.666 19.1884C144.666 19.4937 144.644 19.7009 144.601 19.8099L143.587 19.5155C143.805 19.2538 144.056 18.9812 144.339 18.6977C144.644 18.3924 144.961 18.0871 145.288 17.7817C145.615 17.4764 145.931 17.1929 146.236 16.9312L150.162 13.5292L152.746 16.1134L143.063 24.913L140.087 22.1325L143.161 19.3192L141.918 20.9876L140.577 21.7726C140.948 21.4019 141.231 21.0203 141.428 20.6277C141.624 20.2352 141.722 19.8644 141.722 19.5155C141.722 18.9921 141.58 18.6214 141.297 18.4033C141.013 18.1634 140.654 18.0434 140.217 18.0434C139.934 18.0434 139.639 18.098 139.334 18.207C139.051 18.2942 138.745 18.436 138.418 18.6323L135.18 15.6555C136.183 14.4124 137.153 13.3547 138.091 12.4824C139.029 11.5882 140.01 10.9122 141.035 10.4542C142.06 9.97442 143.205 9.73453 144.47 9.73453C145.582 9.73453 146.596 9.9199 147.512 10.2906C148.428 10.6614 149.322 11.1957 150.195 11.8935C151.089 12.5914 152.016 13.431 152.975 14.4124L152.844 15.0993C152.801 14.6632 152.757 14.1616 152.713 13.5946C152.67 13.0276 152.648 12.4715 152.648 11.9263V7.80451H156.181L156.933 9.96352H160.106ZM168.371 14.4451C170.377 14.4451 171.969 14.7504 173.147 15.361C174.347 15.9499 175.208 16.7022 175.731 17.6182C176.255 18.5341 176.516 19.4719 176.516 20.4314C176.516 22.2197 175.949 23.5936 174.815 24.5532C173.703 25.4909 172.122 26.1234 170.072 26.4505L169.32 25.1093C170.41 25.3928 171.49 25.7417 172.558 26.1561C173.627 26.5704 174.685 27.0611 175.731 27.6281C176.8 28.1952 177.847 28.8385 178.872 29.5582L176.582 32.6004C175.557 31.8589 174.467 31.172 173.311 30.5395C172.177 29.9071 170.966 29.3401 169.68 28.8385C168.415 28.3151 167.084 27.8571 165.689 27.4646C164.293 27.072 162.821 26.7558 161.273 26.5159L161.992 23.0811C162.756 23.2774 163.497 23.4301 164.217 23.5391C164.958 23.6481 165.7 23.7027 166.441 23.7027C167.837 23.7027 168.949 23.5718 169.778 23.3101C170.606 23.0266 171.206 22.645 171.577 22.1652C171.969 21.6854 172.166 21.1184 172.166 20.4642C172.166 19.6791 171.86 19.0466 171.25 18.5668C170.661 18.0871 169.821 17.8472 168.731 17.8472C168.099 17.8472 167.586 17.9017 167.193 18.0107C166.823 18.1198 166.55 18.2942 166.376 18.5341C166.223 18.7522 166.147 19.0248 166.147 19.3519C166.147 19.461 166.168 19.5918 166.212 19.7445C166.256 19.8971 166.299 20.028 166.343 20.137L162.287 20.7259C162.156 20.3987 162.047 20.028 161.96 19.6136C161.872 19.1775 161.829 18.774 161.829 18.4033C161.829 17.6182 162.09 16.9312 162.614 16.3424C163.137 15.7318 163.89 15.2629 164.871 14.9358C165.852 14.6087 167.019 14.4451 168.371 14.4451ZM164.511 16.3097C164.402 15.59 164.075 14.9685 163.53 14.4451C162.984 13.9217 162.199 13.5401 161.174 13.3002L163.661 11.8608L165.165 12.2207C166.387 12.7223 167.27 13.2784 167.815 13.889C168.36 14.4996 168.676 15.2738 168.764 16.2116L164.511 16.3097ZM178.839 9.96352V13.5619H159.441V9.96352H178.839ZM188.791 9.96352V13.5619H185.651V30.3105H181.333V15.7863C181.071 15.1102 180.701 14.5759 180.221 14.1834C179.741 13.769 179.12 13.5619 178.356 13.5619H178.193V9.96352H178.847C179.349 9.96352 179.817 10.0944 180.254 10.3561C180.69 10.6178 181.093 11.1739 181.464 12.0244C181.442 11.9153 181.409 11.6646 181.366 11.272C181.344 10.8795 181.333 10.5414 181.333 10.2579V7.80451H184.866L185.618 9.96352H188.791ZM209.587 9.96352V13.5619H206.447V30.3105H202.129C201.322 29.1329 200.329 28.097 199.152 27.2029C197.974 26.3087 196.666 25.5673 195.226 24.9784C193.787 24.3678 192.25 23.9317 190.614 23.67L188.978 19.8099C190.985 18.6977 193.176 17.6291 195.553 16.6041C197.952 15.5573 200.308 14.7286 202.619 14.118L202.227 15.1975V13.5619H188.128V9.96352H209.587ZM202.129 17.2584L202.587 17.8799C201.627 18.1634 200.689 18.4905 199.773 18.8613C198.857 19.2102 197.941 19.5809 197.026 19.9735C196.131 20.366 195.215 20.7913 194.278 21.2492C194.954 21.3801 195.663 21.5873 196.404 21.8708C197.167 22.1543 197.931 22.5032 198.694 22.9176C199.479 23.3319 200.22 23.8226 200.918 24.3896C201.616 24.9348 202.249 25.5455 202.816 26.2215L202.227 26.4832C202.205 25.9816 202.183 25.48 202.161 24.9784C202.14 24.4769 202.129 23.9862 202.129 23.5064V17.2584ZM204.975 26.9412C204.299 25.5891 203.328 24.3896 202.063 23.3428C200.82 22.2742 199.392 21.4019 197.778 20.7259C196.186 20.028 194.518 19.5591 192.773 19.3192L194.605 17.9453C195.935 18.1852 197.222 18.5232 198.465 18.9594C199.73 19.3737 200.907 19.9626 201.998 20.7259C203.088 21.4673 204.026 22.4596 204.811 23.7027L204.975 26.9412ZM50.6038 40.595C50.2243 39.7968 49.6747 39.1818 48.9551 38.75C48.2354 38.3051 47.398 38.0827 46.4428 38.0827C45.4876 38.0827 44.624 38.3051 43.852 38.75C43.093 39.1818 42.4911 39.8099 42.0462 40.6343C41.6144 41.4455 41.3985 42.3876 41.3985 43.4606C41.3985 44.5336 41.6144 45.4757 42.0462 46.2869C42.4911 47.0982 43.093 47.7263 43.852 48.1712C44.624 48.603 45.4876 48.8189 46.4428 48.8189C47.7774 48.8189 48.8766 48.4198 49.7402 47.6216C50.6038 46.8234 51.1075 45.7439 51.2515 44.3831H45.7951V42.9307H53.1553V44.3046C53.0507 45.4299 52.6974 46.4636 52.0955 47.4057C51.4936 48.3347 50.7019 49.074 49.7205 49.6236C48.7392 50.1601 47.6466 50.4283 46.4428 50.4283C45.1735 50.4283 44.0155 50.1339 42.9687 49.5451C41.9219 48.9432 41.0911 48.1123 40.4761 47.0524C39.8742 45.9925 39.5732 44.7953 39.5732 43.4606C39.5732 42.1259 39.8742 40.9287 40.4761 39.8688C41.0911 38.7958 41.9219 37.9649 42.9687 37.3761C44.0155 36.7742 45.1735 36.4733 46.4428 36.4733C47.8952 36.4733 49.1775 36.8331 50.2897 37.5528C51.415 38.2724 52.2328 39.2865 52.7432 40.595H50.6038ZM65.0558 39.5548V50.3105H63.2697V48.7207C62.9295 49.2703 62.4519 49.7021 61.8369 50.0161C61.235 50.3171 60.5677 50.4676 59.8349 50.4676C58.9975 50.4676 58.2451 50.2975 57.5778 49.9573C56.9104 49.604 56.3805 49.0806 55.988 48.3871C55.6085 47.6936 55.4188 46.8496 55.4188 45.8551V39.5548H57.1852V45.6196C57.1852 46.6795 57.4535 47.4973 57.9899 48.073C58.5264 48.6357 59.2592 48.917 60.1882 48.917C61.1434 48.917 61.8958 48.6226 62.4454 48.0338C62.9949 47.445 63.2697 46.5879 63.2697 45.4626V39.5548H65.0558ZM68.994 37.8079C68.6538 37.8079 68.3659 37.6902 68.1304 37.4546C67.8949 37.2191 67.7771 36.9312 67.7771 36.591C67.7771 36.2508 67.8949 35.9629 68.1304 35.7274C68.3659 35.4919 68.6538 35.3741 68.994 35.3741C69.3211 35.3741 69.5959 35.4919 69.8183 35.7274C70.0539 35.9629 70.1716 36.2508 70.1716 36.591C70.1716 36.9312 70.0539 37.2191 69.8183 37.4546C69.5959 37.6902 69.3211 37.8079 68.994 37.8079ZM69.8576 39.5548V50.3105H68.0715V39.5548H69.8576ZM75.0803 41.0268V47.3664C75.0803 47.8898 75.1915 48.2628 75.414 48.4852C75.6364 48.6946 76.0224 48.7992 76.572 48.7992H77.887V50.3105H76.2776C75.2831 50.3105 74.5373 50.0816 74.0401 49.6236C73.5428 49.1656 73.2942 48.4132 73.2942 47.3664V41.0268H71.9007V39.5548H73.2942V36.8462H75.0803V39.5548H77.887V41.0268H75.0803ZM79.3838 44.8934C79.3838 43.7943 79.6062 42.8325 80.0511 42.0082C80.496 41.1707 81.1044 40.523 81.8764 40.0651C82.6615 39.6071 83.5317 39.3781 84.4869 39.3781C85.429 39.3781 86.2468 39.5809 86.9403 39.9866C87.6338 40.3922 88.1507 40.9025 88.4909 41.5175V39.5548H90.2966V50.3105H88.4909V48.3086C88.1376 48.9366 87.6076 49.46 86.901 49.8787C86.2075 50.2844 85.3963 50.4872 84.4673 50.4872C83.5121 50.4872 82.6485 50.2517 81.8764 49.7806C81.1044 49.3096 80.496 48.6488 80.0511 47.7982C79.6062 46.9477 79.3838 45.9794 79.3838 44.8934ZM88.4909 44.913C88.4909 44.1018 88.3273 43.3952 88.0002 42.7933C87.6731 42.1914 87.2282 41.7334 86.6655 41.4194C86.116 41.0922 85.5075 40.9287 84.8402 40.9287C84.1728 40.9287 83.5644 41.0857 83.0148 41.3997C82.4653 41.7138 82.0269 42.1717 81.6998 42.7736C81.3727 43.3755 81.2091 44.0821 81.2091 44.8934C81.2091 45.7177 81.3727 46.4374 81.6998 47.0524C82.0269 47.6543 82.4653 48.1188 83.0148 48.4459C83.5644 48.76 84.1728 48.917 84.8402 48.917C85.5075 48.917 86.116 48.76 86.6655 48.4459C87.2282 48.1188 87.6731 47.6543 88.0002 47.0524C88.3273 46.4374 88.4909 45.7243 88.4909 44.913ZM95.101 41.3016C95.415 40.6866 95.8599 40.209 96.4356 39.8688C97.0245 39.5286 97.7376 39.3585 98.575 39.3585V41.2035H98.104C96.102 41.2035 95.101 42.2895 95.101 44.4616V50.3105H93.3149V39.5548H95.101V41.3016ZM107.616 36.6303V45.2859C107.616 46.5028 107.911 47.4057 108.5 47.9945C109.101 48.5833 109.932 48.8777 110.992 48.8777C112.039 48.8777 112.857 48.5833 113.446 47.9945C114.048 47.4057 114.349 46.5028 114.349 45.2859V36.6303H116.135V45.2663C116.135 46.4047 115.906 47.3664 115.448 48.1515C114.99 48.9235 114.368 49.4993 113.583 49.8787C112.811 50.2582 111.941 50.4479 110.973 50.4479C110.004 50.4479 109.128 50.2582 108.343 49.8787C107.571 49.4993 106.956 48.9235 106.498 48.1515C106.053 47.3664 105.83 46.4047 105.83 45.2663V36.6303H107.616ZM120.9 41.5371C121.254 40.9221 121.777 40.4118 122.47 40.0062C123.177 39.5875 123.995 39.3781 124.924 39.3781C125.879 39.3781 126.743 39.6071 127.515 40.0651C128.3 40.523 128.915 41.1707 129.36 42.0082C129.805 42.8325 130.027 43.7943 130.027 44.8934C130.027 45.9794 129.805 46.9477 129.36 47.7982C128.915 48.6488 128.3 49.3096 127.515 49.7806C126.743 50.2517 125.879 50.4872 124.924 50.4872C124.008 50.4872 123.197 50.2844 122.49 49.8787C121.797 49.46 121.267 48.9432 120.9 48.3282V55.4137H119.114V39.5548H120.9V41.5371ZM128.202 44.8934C128.202 44.0821 128.038 43.3755 127.711 42.7736C127.384 42.1717 126.939 41.7138 126.376 41.3997C125.827 41.0857 125.218 40.9287 124.551 40.9287C123.897 40.9287 123.288 41.0922 122.726 41.4194C122.176 41.7334 121.731 42.1979 121.391 42.8129C121.064 43.4148 120.9 44.1148 120.9 44.913C120.9 45.7243 121.064 46.4374 121.391 47.0524C121.731 47.6543 122.176 48.1188 122.726 48.4459C123.288 48.76 123.897 48.917 124.551 48.917C125.218 48.917 125.827 48.76 126.376 48.4459C126.939 48.1188 127.384 47.6543 127.711 47.0524C128.038 46.4374 128.202 45.7177 128.202 44.8934ZM131.711 44.8934C131.711 43.7943 131.933 42.8325 132.378 42.0082C132.823 41.1707 133.431 40.523 134.203 40.0651C134.988 39.6071 135.859 39.3781 136.814 39.3781C137.756 39.3781 138.574 39.5809 139.267 39.9866C139.961 40.3922 140.478 40.9025 140.818 41.5175V39.5548H142.623V50.3105H140.818V48.3086C140.464 48.9366 139.934 49.46 139.228 49.8787C138.534 50.2844 137.723 50.4872 136.794 50.4872C135.839 50.4872 134.975 50.2517 134.203 49.7806C133.431 49.3096 132.823 48.6488 132.378 47.7982C131.933 46.9477 131.711 45.9794 131.711 44.8934ZM140.818 44.913C140.818 44.1018 140.654 43.3952 140.327 42.7933C140 42.1914 139.555 41.7334 138.992 41.4194C138.443 41.0922 137.834 40.9287 137.167 40.9287C136.5 40.9287 135.891 41.0857 135.342 41.3997C134.792 41.7138 134.354 42.1717 134.027 42.7736C133.7 43.3755 133.536 44.0821 133.536 44.8934C133.536 45.7177 133.7 46.4374 134.027 47.0524C134.354 47.6543 134.792 48.1188 135.342 48.4459C135.891 48.76 136.5 48.917 137.167 48.917C137.834 48.917 138.443 48.76 138.992 48.4459C139.555 48.1188 140 47.6543 140.327 47.0524C140.654 46.4374 140.818 45.7243 140.818 44.913ZM150.98 39.3585C151.792 39.3585 152.524 39.5351 153.179 39.8884C153.833 40.2286 154.343 40.7455 154.71 41.439C155.089 42.1325 155.279 42.9765 155.279 43.9709V50.3105H153.512V44.2261C153.512 43.1531 153.244 42.3353 152.708 41.7726C152.171 41.1969 151.438 40.909 150.509 40.909C149.567 40.909 148.815 41.2035 148.252 41.7923C147.703 42.3811 147.428 43.2382 147.428 44.3635V50.3105H145.642V35.7863H147.428V41.0857C147.781 40.5361 148.265 40.1109 148.88 39.8099C149.508 39.509 150.208 39.3585 150.98 39.3585ZM157.529 44.8934C157.529 43.7943 157.751 42.8325 158.196 42.0082C158.641 41.1707 159.25 40.523 160.022 40.0651C160.807 39.6071 161.677 39.3781 162.632 39.3781C163.574 39.3781 164.392 39.5809 165.086 39.9866C165.779 40.3922 166.296 40.9025 166.636 41.5175V39.5548H168.442V50.3105H166.636V48.3086C166.283 48.9366 165.753 49.46 165.046 49.8787C164.353 50.2844 163.542 50.4872 162.613 50.4872C161.657 50.4872 160.794 50.2517 160.022 49.7806C159.25 49.3096 158.641 48.6488 158.196 47.7982C157.751 46.9477 157.529 45.9794 157.529 44.8934ZM166.636 44.913C166.636 44.1018 166.473 43.3952 166.145 42.7933C165.818 42.1914 165.373 41.7334 164.811 41.4194C164.261 41.0922 163.653 40.9287 162.985 40.9287C162.318 40.9287 161.71 41.0857 161.16 41.3997C160.611 41.7138 160.172 42.1717 159.845 42.7736C159.518 43.3755 159.354 44.0821 159.354 44.8934C159.354 45.7177 159.518 46.4374 159.845 47.0524C160.172 47.6543 160.611 48.1188 161.16 48.4459C161.71 48.76 162.318 48.917 162.985 48.917C163.653 48.917 164.261 48.76 164.811 48.4459C165.373 48.1188 165.818 47.6543 166.145 47.0524C166.473 46.4374 166.636 45.7243 166.636 44.913ZM173.246 41.3016C173.56 40.6866 174.005 40.209 174.581 39.8688C175.17 39.5286 175.883 39.3585 176.72 39.3585V41.2035H176.249C174.247 41.2035 173.246 42.2895 173.246 44.4616V50.3105H171.46V39.5548H173.246V41.3016Z" fill="#263238"/>
</svg>
