<svg width="213" height="25" viewBox="0 0 213 25" fill="none" xmlns="http://www.w3.org/2000/svg">
<path d="M16.0879 24.3105L11.41 17.2774L7.2883 24.3105H0.942125L8.30238 12.6323L0.778564 1.34654H7.2883L11.9007 8.28154L15.9571 1.34654H22.3032L15.0084 12.9267L22.5976 24.3105H16.0879ZM43.4302 6.0571V24.3105H37.8365V21.8244C37.2694 22.6313 36.4952 23.2856 35.5139 23.7872C34.5543 24.2669 33.4857 24.5068 32.3081 24.5068C30.9124 24.5068 29.6802 24.2015 28.6116 23.5909C27.543 22.9584 26.7143 22.0534 26.1255 20.8758C25.5366 19.6981 25.2422 18.3133 25.2422 16.7213V6.0571H30.8033V15.9689C30.8033 17.1902 31.1195 18.1388 31.752 18.8149C32.3844 19.4909 33.2349 19.829 34.3035 19.829C35.3939 19.829 36.2554 19.4909 36.8878 18.8149C37.5202 18.1388 37.8365 17.1902 37.8365 15.9689V6.0571H43.4302ZM53.042 9.09934C53.6963 8.09617 54.5141 7.31107 55.4955 6.74406C56.4768 6.15524 57.5672 5.86083 58.7667 5.86083V11.7817H57.2292C55.8335 11.7817 54.7867 12.0871 54.0888 12.6977C53.391 13.2865 53.042 14.3333 53.042 15.8381V24.3105H47.4482V6.0571H53.042V9.09934ZM69.7493 24.5722C67.961 24.5722 66.3472 24.1906 64.9079 23.4273C63.4904 22.664 62.3672 21.5736 61.5385 20.1561C60.7316 18.7386 60.3282 17.0811 60.3282 15.1838C60.3282 13.3083 60.7425 11.6618 61.5712 10.2443C62.4 8.80493 63.534 7.70362 64.9733 6.94033C66.4127 6.17705 68.0265 5.7954 69.8147 5.7954C71.603 5.7954 73.2168 6.17705 74.6561 6.94033C76.0955 7.70362 77.2295 8.80493 78.0582 10.2443C78.8869 11.6618 79.3013 13.3083 79.3013 15.1838C79.3013 17.0593 78.876 18.7167 78.0255 20.1561C77.1968 21.5736 76.0519 22.664 74.5907 23.4273C73.1514 24.1906 71.5376 24.5722 69.7493 24.5722ZM69.7493 19.7308C70.8179 19.7308 71.7229 19.3383 72.4644 18.5532C73.2277 17.7681 73.6094 16.645 73.6094 15.1838C73.6094 13.7227 73.2386 12.5996 72.4971 11.8145C71.7775 11.0294 70.8833 10.6368 69.8147 10.6368C68.7243 10.6368 67.8193 11.0294 67.0996 11.8145C66.3799 12.5777 66.0201 13.7009 66.0201 15.1838C66.0201 16.645 66.369 17.7681 67.0669 18.5532C67.7866 19.3383 68.6807 19.7308 69.7493 19.7308ZM87.8627 9.09934C88.5169 8.09617 89.3348 7.31107 90.3161 6.74406C91.2975 6.15524 92.3879 5.86083 93.5874 5.86083V11.7817H92.0499C90.6542 11.7817 89.6074 12.0871 88.9095 12.6977C88.2116 13.2865 87.8627 14.3333 87.8627 15.8381V24.3105H82.2689V6.0571H87.8627V9.09934ZM102.215 19.7308H112.094V24.3105H95.8685V20.058L105.682 5.92625H95.8685V1.34654H112.094V5.59913L102.215 19.7308ZM124.057 24.5722C122.269 24.5722 120.655 24.1906 119.215 23.4273C117.798 22.664 116.675 21.5736 115.846 20.1561C115.039 18.7386 114.636 17.0811 114.636 15.1838C114.636 13.3083 115.05 11.6618 115.879 10.2443C116.707 8.80493 117.841 7.70362 119.281 6.94033C120.72 6.17705 122.334 5.7954 124.122 5.7954C125.91 5.7954 127.524 6.17705 128.964 6.94033C130.403 7.70362 131.537 8.80493 132.366 10.2443C133.194 11.6618 133.609 13.3083 133.609 15.1838C133.609 17.0593 133.184 18.7167 132.333 20.1561C131.504 21.5736 130.359 22.664 128.898 23.4273C127.459 24.1906 125.845 24.5722 124.057 24.5722ZM124.057 19.7308C125.125 19.7308 126.03 19.3383 126.772 18.5532C127.535 17.7681 127.917 16.645 127.917 15.1838C127.917 13.7227 127.546 12.5996 126.805 11.8145C126.085 11.0294 125.191 10.6368 124.122 10.6368C123.032 10.6368 122.127 11.0294 121.407 11.8145C120.687 12.5777 120.328 13.7009 120.328 15.1838C120.328 16.645 120.677 17.7681 121.374 18.5532C122.094 19.3383 122.988 19.7308 124.057 19.7308ZM147.699 5.86083C149.836 5.86083 151.537 6.55869 152.802 7.95441C154.088 9.32833 154.732 11.2256 154.732 13.6463V24.3105H149.171V14.3987C149.171 13.1775 148.854 12.2288 148.222 11.5528C147.59 10.8767 146.739 10.5387 145.67 10.5387C144.602 10.5387 143.751 10.8767 143.119 11.5528C142.486 12.2288 142.17 13.1775 142.17 14.3987V24.3105H136.576V6.0571H142.17V8.47781C142.737 7.67091 143.5 7.03847 144.46 6.5805C145.42 6.10072 146.499 5.86083 147.699 5.86083ZM169.774 24.3105L164.213 16.6559V24.3105H158.619V0.10347H164.213V13.4828L169.741 6.0571H176.643L169.054 15.2165L176.709 24.3105H169.774ZM177.728 15.1511C177.728 13.2756 178.077 11.6291 178.775 10.2116C179.495 8.79403 180.465 7.70362 181.686 6.94033C182.908 6.17705 184.271 5.7954 185.775 5.7954C187.062 5.7954 188.185 6.0571 189.145 6.5805C190.126 7.10389 190.878 7.79085 191.402 8.64137V6.0571H196.996V24.3105H191.402V21.7263C190.857 22.5768 190.093 23.2638 189.112 23.7872C188.152 24.3105 187.029 24.5722 185.743 24.5722C184.26 24.5722 182.908 24.1906 181.686 23.4273C180.465 22.6422 179.495 21.5409 178.775 20.1234C178.077 18.684 177.728 17.0266 177.728 15.1511ZM191.402 15.1838C191.402 13.7881 191.009 12.6868 190.224 11.8799C189.461 11.073 188.523 10.6695 187.411 10.6695C186.299 10.6695 185.35 11.073 184.565 11.8799C183.802 12.665 183.42 13.7554 183.42 15.1511C183.42 16.5468 183.802 17.6591 184.565 18.4878C185.35 19.2947 186.299 19.6981 187.411 19.6981C188.523 19.6981 189.461 19.2947 190.224 18.4878C191.009 17.6809 191.402 16.5795 191.402 15.1838ZM206.636 9.09934C207.291 8.09617 208.108 7.31107 209.09 6.74406C210.071 6.15524 211.162 5.86083 212.361 5.86083V11.7817H210.824C209.428 11.7817 208.381 12.0871 207.683 12.6977C206.985 13.2865 206.636 14.3333 206.636 15.8381V24.3105H201.043V6.0571H206.636V9.09934Z" fill="black"/>
</svg>
